<svg width="267" height="50" viewBox="0 0 267 50" fill="none" xmlns="http://www.w3.org/2000/svg">
<g clip-path="url(#clip0_328_818)">
<g clip-path="url(#clip1_328_818)">
<circle cx="27.6027" cy="27.3827" r="16.4234" transform="rotate(30 27.6027 27.3827)" fill="white"/>
<path fill-rule="evenodd" clip-rule="evenodd" d="M11.0575 26.121C13.7922 24.9925 16.7905 24.3698 19.9347 24.3698C29.2116 24.3698 37.2176 29.7911 40.9343 37.6272C35.8975 44.1168 26.6959 46.0597 19.3669 41.8443C13.6055 38.5305 10.5737 32.3154 11.0575 26.121Z" fill="#24F960"/>
<path d="M36.085 3.2019L40.1148 5.52855M44.1447 7.85519L40.1148 5.52855M40.1148 5.52855L37.1022 10.8661" stroke="#011F2C" stroke-width="4.37956" stroke-linecap="round" stroke-linejoin="round"/>
<circle cx="27.6027" cy="27.3827" r="18.6131" transform="rotate(30 27.6027 27.3827)" stroke="#011F2C" stroke-width="4.37956"/>
<path d="M29.9751 23.2739L25.4131 31.1756" stroke="#011F2C" stroke-width="4.37956" stroke-linecap="round" stroke-linejoin="round"/>
</g>
<path d="M67.1993 45.2481C66.3429 45.2481 65.7139 45.1277 65.3125 44.8868C64.9378 44.6727 64.7504 44.3515 64.7504 43.9233V22.9671C64.7504 21.7895 64.7103 20.8527 64.63 20.1569C64.5765 19.4342 64.5095 18.8722 64.4292 18.4707C64.3757 18.0693 64.349 17.7213 64.349 17.4269C64.349 17.1325 64.5363 16.8917 64.911 16.7043C65.3125 16.517 65.7808 16.3831 66.3161 16.3028C66.8782 16.1958 67.4001 16.1289 67.8818 16.1021C68.3903 16.0486 68.7516 16.0218 68.9657 16.0218C69.4475 16.0218 69.7687 16.1958 69.9292 16.5437C70.0898 16.8917 70.2772 17.6143 70.4913 18.7116C70.866 17.8552 71.4146 17.1325 72.1373 16.5437C72.8599 15.9549 73.703 15.6605 74.6665 15.6605C76.5667 15.6605 78.0923 16.5973 79.2431 18.4707C80.394 20.3174 80.9694 23.0072 80.9694 26.5401C80.9694 29.9926 80.394 32.6556 79.2431 34.5291C78.0923 36.3758 76.6069 37.2992 74.7869 37.2992C74.0108 37.2992 73.2346 37.1118 72.4584 36.7372C71.7091 36.3625 71.147 35.8941 70.7723 35.332V43.9233C70.7723 44.3515 70.5716 44.6727 70.1701 44.8868C69.7954 45.1277 69.1799 45.2481 68.3234 45.2481H67.1993ZM72.8198 32.4415C73.5156 32.4415 74.0241 31.9999 74.3453 31.1167C74.6932 30.2335 74.8672 28.6946 74.8672 26.4999C74.8672 24.0912 74.6799 22.4719 74.3052 21.6423C73.9305 20.7858 73.355 20.3576 72.5789 20.3576C72.2042 20.3576 71.8563 20.4245 71.5351 20.5583C71.2407 20.6654 70.9864 20.7992 70.7723 20.9598V31.0766C71.04 31.4513 71.3344 31.7724 71.6555 32.0401C72.0035 32.3077 72.3915 32.4415 72.8198 32.4415ZM91.6298 37.2992C88.9534 37.2992 86.9194 36.3625 85.5276 34.489C84.1359 32.6155 83.4401 29.9391 83.4401 26.4598C83.4401 22.9537 84.1225 20.2773 85.4875 18.4306C86.8792 16.5839 88.9267 15.6605 91.6298 15.6605C94.3598 15.6605 96.4072 16.5839 97.7722 18.4306C99.1639 20.2773 99.8598 22.9537 99.8598 26.4598C99.8598 29.9391 99.1639 32.6155 97.7722 34.489C96.3804 36.3625 94.333 37.2992 91.6298 37.2992ZM91.67 32.6021C92.4461 32.6021 92.9814 32.1471 93.2758 31.2372C93.597 30.3272 93.7576 28.7347 93.7576 26.4598C93.7576 24.1848 93.597 22.6058 93.2758 21.7226C92.9814 20.8126 92.4461 20.3576 91.67 20.3576C90.8938 20.3576 90.3452 20.8126 90.024 21.7226C89.7028 22.6058 89.5422 24.1848 89.5422 26.4598C89.5422 28.7347 89.7028 30.3272 90.024 31.2372C90.3452 32.1471 90.8938 32.6021 91.67 32.6021ZM105.144 37.0583C104.288 37.0583 103.659 36.9513 103.258 36.7372C102.883 36.4963 102.695 36.1617 102.695 35.7335V22.9671C102.695 21.7895 102.655 20.8527 102.575 20.1569C102.522 19.4342 102.455 18.8722 102.374 18.4707C102.321 18.0693 102.294 17.7213 102.294 17.4269C102.294 17.1325 102.481 16.8917 102.856 16.7043C103.258 16.517 103.726 16.3831 104.261 16.3028C104.823 16.1958 105.345 16.1289 105.827 16.1021C106.335 16.0486 106.697 16.0218 106.911 16.0218C107.393 16.0218 107.714 16.1958 107.874 16.5437C108.035 16.8917 108.222 17.6143 108.436 18.7116C109.025 17.9622 109.748 17.2664 110.604 16.624C111.461 15.9817 112.464 15.6605 113.615 15.6605C116.104 15.6605 117.643 16.7311 118.232 18.8722C118.767 18.0693 119.49 17.3333 120.4 16.6642C121.31 15.9951 122.34 15.6605 123.491 15.6605C125.097 15.6605 126.328 16.1423 127.185 17.1058C128.041 18.0425 128.469 19.4209 128.469 21.2408V35.7335C128.469 36.1617 128.268 36.4963 127.867 36.7372C127.492 36.9513 126.877 37.0583 126.02 37.0583H124.896C124.04 37.0583 123.411 36.9513 123.009 36.7372C122.635 36.4963 122.447 36.1617 122.447 35.7335V22.4452C122.447 21.8296 122.327 21.3612 122.086 21.0401C121.872 20.7189 121.457 20.5583 120.841 20.5583C120.065 20.5583 119.316 20.9732 118.593 21.8028V35.7335C118.593 36.1617 118.393 36.4963 117.991 36.7372C117.616 36.9513 117.001 37.0583 116.144 37.0583H115.02C114.164 37.0583 113.535 36.9513 113.133 36.7372C112.759 36.4963 112.571 36.1617 112.571 35.7335V22.4452C112.571 21.8296 112.451 21.3612 112.21 21.0401C111.996 20.7189 111.581 20.5583 110.966 20.5583C110.591 20.5583 110.189 20.6788 109.761 20.9196C109.36 21.1605 109.012 21.4683 108.717 21.843V35.7335C108.717 36.1617 108.517 36.4963 108.115 36.7372C107.741 36.9513 107.125 37.0583 106.268 37.0583H105.144ZM139.455 37.2992C136.778 37.2992 134.744 36.3625 133.352 34.489C131.961 32.6155 131.265 29.9391 131.265 26.4598C131.265 22.9537 131.947 20.2773 133.312 18.4306C134.704 16.5839 136.751 15.6605 139.455 15.6605C142.185 15.6605 144.232 16.5839 145.597 18.4306C146.989 20.2773 147.685 22.9537 147.685 26.4598C147.685 29.9391 146.989 32.6155 145.597 34.489C144.205 36.3625 142.158 37.2992 139.455 37.2992ZM139.495 32.6021C140.271 32.6021 140.806 32.1471 141.101 31.2372C141.422 30.3272 141.582 28.7347 141.582 26.4598C141.582 24.1848 141.422 22.6058 141.101 21.7226C140.806 20.8126 140.271 20.3576 139.495 20.3576C138.719 20.3576 138.17 20.8126 137.849 21.7226C137.528 22.6058 137.367 24.1848 137.367 26.4598C137.367 28.7347 137.528 30.3272 137.849 31.2372C138.17 32.1471 138.719 32.6021 139.495 32.6021ZM156.422 37.3393C154.521 37.3393 152.996 36.416 151.845 34.5693C150.694 32.6958 150.119 29.9792 150.119 26.4196C150.119 22.9671 150.694 20.3174 151.845 18.4707C152.996 16.5973 154.481 15.6605 156.301 15.6605C157.077 15.6605 157.84 15.8479 158.59 16.2226C159.366 16.5973 159.941 17.0656 160.316 17.6277V8.03277C160.316 7.60455 160.503 7.28338 160.878 7.06927C161.279 6.82839 161.908 6.70796 162.765 6.70796H163.889C164.745 6.70796 165.361 6.82839 165.736 7.06927C166.137 7.28338 166.338 7.60455 166.338 8.03277V29.9926C166.338 31.1702 166.365 32.107 166.418 32.8028C166.498 33.4987 166.565 34.0608 166.619 34.489C166.699 34.8904 166.739 35.2384 166.739 35.5328C166.739 35.8272 166.539 36.0681 166.137 36.2554C165.762 36.4427 165.294 36.5899 164.732 36.697C164.197 36.8041 163.675 36.8844 163.166 36.9379C162.684 36.9646 162.337 36.978 162.122 36.978C161.667 36.978 161.346 36.8041 161.159 36.4561C160.998 36.0814 160.811 35.3454 160.597 34.2481C160.222 35.1313 159.674 35.8673 158.951 36.4561C158.228 37.0449 157.385 37.3393 156.422 37.3393ZM158.509 32.6021C158.884 32.6021 159.219 32.5084 159.513 32.3211C159.834 32.107 160.102 31.8661 160.316 31.5985V21.8831C160.048 21.5084 159.754 21.1873 159.433 20.9196C159.111 20.652 158.723 20.5182 158.268 20.5182C157.573 20.5182 157.051 20.9598 156.703 21.843C156.382 22.6994 156.221 24.2384 156.221 26.4598C156.221 28.8685 156.408 30.5011 156.783 31.3576C157.184 32.1873 157.76 32.6021 158.509 32.6021ZM172.02 37.0583C171.164 37.0583 170.535 36.9513 170.133 36.7372C169.759 36.4963 169.571 36.1617 169.571 35.7335V17.2262C169.571 16.798 169.759 16.4768 170.133 16.2627C170.535 16.0218 171.164 15.9014 172.02 15.9014H173.144C174.001 15.9014 174.616 16.0218 174.991 16.2627C175.392 16.4768 175.593 16.798 175.593 17.2262V35.7335C175.593 36.1617 175.392 36.4963 174.991 36.7372C174.616 36.9513 174.001 37.0583 173.144 37.0583H172.02ZM172.622 13.9342C171.579 13.9342 170.816 13.8272 170.334 13.6131C169.879 13.399 169.651 13.0778 169.651 12.6496V9.51818C169.651 9.08995 169.879 8.76878 170.334 8.55467C170.816 8.34056 171.579 8.2335 172.622 8.2335C173.666 8.2335 174.415 8.34056 174.87 8.55467C175.352 8.76878 175.593 9.08995 175.593 9.51818V12.6496C175.593 13.0778 175.352 13.399 174.87 13.6131C174.415 13.8272 173.666 13.9342 172.622 13.9342ZM178.981 36.978C178.633 36.978 178.338 36.8174 178.097 36.4963C177.883 36.1483 177.723 35.7469 177.616 35.2919C177.535 34.8101 177.495 34.3819 177.495 34.0072C177.495 33.7396 177.602 33.3917 177.816 32.9634L184.119 20.6788H179.181C178.378 20.6788 177.977 20.0097 177.977 18.6715V17.989C177.977 16.6508 178.378 15.9817 179.181 15.9817H189.82C190.195 15.9817 190.489 16.1556 190.703 16.5036C190.917 16.8247 191.064 17.2262 191.145 17.708C191.252 18.1629 191.305 18.5778 191.305 18.9525C191.305 19.2201 191.198 19.5681 190.984 19.9963L184.681 32.2809H190.262C191.064 32.2809 191.466 32.95 191.466 34.2882V34.9707C191.466 36.3089 191.064 36.978 190.262 36.978H178.981ZM201.683 37.2992C198.525 37.2992 196.223 36.3892 194.778 34.5693C193.333 32.7226 192.61 30.0729 192.61 26.6204C192.61 23.8369 192.958 21.6556 193.654 20.0766C194.376 18.4707 195.367 17.3333 196.624 16.6642C197.882 15.9951 199.328 15.6605 200.96 15.6605C203.663 15.6605 205.577 16.6106 206.701 18.5109C207.852 20.4111 208.427 23.0474 208.427 26.4196C208.427 27.2226 208.28 27.8247 207.986 28.2262C207.718 28.6277 207.25 28.8284 206.581 28.8284H198.712C198.712 30.2201 199.02 31.197 199.635 31.759C200.278 32.3211 201.054 32.6021 201.964 32.6021C202.767 32.6021 203.476 32.5084 204.092 32.3211C204.707 32.1337 205.229 31.9464 205.657 31.759C206.112 31.5717 206.46 31.478 206.701 31.478C206.969 31.478 207.183 31.6654 207.343 32.0401C207.531 32.4148 207.665 32.843 207.745 33.3247C207.852 33.8065 207.906 34.1946 207.906 34.489C207.906 34.9172 207.678 35.3053 207.223 35.6532C206.768 36.0011 206.193 36.3089 205.497 36.5766C204.828 36.8174 204.145 36.9914 203.449 37.0985C202.753 37.2323 202.165 37.2992 201.683 37.2992ZM198.632 25.2554H203.008C203.008 23.3552 202.847 22.0036 202.526 21.2007C202.232 20.371 201.696 19.9561 200.92 19.9561C200.278 19.9561 199.729 20.3174 199.274 21.0401C198.846 21.7627 198.632 23.1678 198.632 25.2554ZM212.563 37.0583C210.957 37.0583 210.154 36.6301 210.154 35.7736V32.0802C210.154 31.2238 210.957 30.7955 212.563 30.7955H213.848C215.453 30.7955 216.256 31.2238 216.256 32.0802V35.7736C216.256 36.6301 215.453 37.0583 213.848 37.0583H212.563ZM220.859 37.0583C220.002 37.0583 219.373 36.9513 218.972 36.7372C218.597 36.4963 218.41 36.1617 218.41 35.7335V22.9671C218.41 21.7895 218.37 20.8527 218.289 20.1569C218.236 19.4342 218.169 18.8722 218.089 18.4707C218.035 18.0693 218.008 17.7213 218.008 17.4269C218.008 17.1325 218.196 16.8917 218.57 16.7043C218.972 16.517 219.44 16.3831 219.976 16.3028C220.538 16.1958 221.06 16.1289 221.541 16.1021C222.05 16.0486 222.411 16.0218 222.625 16.0218C223.107 16.0218 223.428 16.1958 223.589 16.5437C223.749 16.8917 223.937 17.6143 224.151 18.7116C224.74 17.9622 225.462 17.2664 226.319 16.624C227.175 15.9817 228.179 15.6605 229.33 15.6605C231.819 15.6605 233.358 16.7311 233.946 18.8722C234.482 18.0693 235.204 17.3333 236.114 16.6642C237.024 15.9951 238.055 15.6605 239.205 15.6605C240.811 15.6605 242.042 16.1423 242.899 17.1058C243.755 18.0425 244.184 19.4209 244.184 21.2408V35.7335C244.184 36.1617 243.983 36.4963 243.581 36.7372C243.207 36.9513 242.591 37.0583 241.735 37.0583H240.611C239.754 37.0583 239.125 36.9513 238.724 36.7372C238.349 36.4963 238.162 36.1617 238.162 35.7335V22.4452C238.162 21.8296 238.041 21.3612 237.8 21.0401C237.586 20.7189 237.171 20.5583 236.556 20.5583C235.78 20.5583 235.03 20.9732 234.308 21.8028V35.7335C234.308 36.1617 234.107 36.4963 233.705 36.7372C233.331 36.9513 232.715 37.0583 231.859 37.0583H230.735C229.878 37.0583 229.249 36.9513 228.848 36.7372C228.473 36.4963 228.286 36.1617 228.286 35.7335V22.4452C228.286 21.8296 228.165 21.3612 227.924 21.0401C227.71 20.7189 227.296 20.5583 226.68 20.5583C226.305 20.5583 225.904 20.6788 225.476 20.9196C225.074 21.1605 224.726 21.4683 224.432 21.843V35.7335C224.432 36.1617 224.231 36.4963 223.83 36.7372C223.455 36.9513 222.839 37.0583 221.983 37.0583H220.859ZM256.052 37.2992C252.894 37.2992 250.592 36.3892 249.147 34.5693C247.702 32.7226 246.979 30.0729 246.979 26.6204C246.979 23.8369 247.327 21.6556 248.023 20.0766C248.746 18.4707 249.736 17.3333 250.994 16.6642C252.252 15.9951 253.697 15.6605 255.33 15.6605C258.033 15.6605 259.946 16.6106 261.07 18.5109C262.221 20.4111 262.797 23.0474 262.797 26.4196C262.797 27.2226 262.649 27.8247 262.355 28.2262C262.087 28.6277 261.619 28.8284 260.95 28.8284H253.081C253.081 30.2201 253.389 31.197 254.005 31.759C254.647 32.3211 255.423 32.6021 256.333 32.6021C257.136 32.6021 257.845 32.5084 258.461 32.3211C259.076 32.1337 259.598 31.9464 260.027 31.759C260.482 31.5717 260.83 31.478 261.07 31.478C261.338 31.478 261.552 31.6654 261.713 32.0401C261.9 32.4148 262.034 32.843 262.114 33.3247C262.221 33.8065 262.275 34.1946 262.275 34.489C262.275 34.9172 262.047 35.3053 261.592 35.6532C261.137 36.0011 260.562 36.3089 259.866 36.5766C259.197 36.8174 258.514 36.9914 257.819 37.0985C257.123 37.2323 256.534 37.2992 256.052 37.2992ZM253.001 25.2554H257.377C257.377 23.3552 257.216 22.0036 256.895 21.2007C256.601 20.371 256.066 19.9561 255.289 19.9561C254.647 19.9561 254.098 20.3174 253.643 21.0401C253.215 21.7627 253.001 23.1678 253.001 25.2554Z" fill="#011F2C"/>
</g>
<defs>
<clipPath id="clip0_328_818">
<rect width="267" height="50" fill="white"/>
</clipPath>
<clipPath id="clip1_328_818">
<rect width="44.8694" height="50" fill="white" transform="translate(5.16797 -0.182495)"/>
</clipPath>
</defs>
</svg>
